<svg xmlns="http://www.w3.org/2000/svg" xmlns:xlink="http://www.w3.org/1999/xlink" viewBox="176 298 459 256" preserveAspectRatio="xMidYMid meet"><defs><g/><clipPath id="a2e36cb2ff"><rect x="0" width="459" y="0" height="256"/></clipPath></defs><g transform="matrix(1, 0, 0, 1, 176, 298)"><g clip-path="url(#a2e36cb2ff)"><g fill="#000000" fill-opacity="1"><g transform="translate(1.03085, 115.259549)"><g><path d="M 39.359375 0 C 38.722656 0 37.945312 -0.0664062 37.03125 -0.203125 C 36.113281 -0.335938 35.242188 -0.40625 34.421875 -0.40625 C 33.503906 -0.40625 32.632812 -0.359375 31.8125 -0.265625 C 30.988281 -0.179688 30.078125 -0.140625 29.078125 -0.140625 C 27.703125 -0.140625 26.144531 -0.273438 24.40625 -0.546875 C 22.675781 -0.816406 21.171875 -0.953125 19.890625 -0.953125 C 18.785156 -0.953125 17.613281 -0.816406 16.375 -0.546875 C 15.144531 -0.273438 14.078125 -0.140625 13.171875 -0.140625 C 11.984375 -0.140625 11.160156 -0.476562 10.703125 -1.15625 C 10.242188 -1.84375 10.015625 -2.785156 10.015625 -3.984375 C 10.015625 -4.523438 10.035156 -5.046875 10.078125 -5.546875 C 10.128906 -6.054688 10.15625 -6.539062 10.15625 -7 C 10.15625 -8.28125 10.0625 -9.488281 9.875 -10.625 C 9.6875 -11.769531 9.59375 -12.984375 9.59375 -14.265625 C 9.59375 -15.265625 9.640625 -16.335938 9.734375 -17.484375 C 9.828125 -18.628906 9.875 -19.929688 9.875 -21.390625 C 9.875 -22.765625 9.941406 -24 10.078125 -25.09375 C 10.210938 -26.195312 10.28125 -27.113281 10.28125 -27.84375 C 10.28125 -28.757812 10.1875 -29.648438 10 -30.515625 C 9.820312 -31.378906 9.734375 -32.410156 9.734375 -33.609375 C 9.734375 -34.890625 9.800781 -36.164062 9.9375 -37.4375 C 10.082031 -38.71875 10.15625 -40 10.15625 -41.28125 C 10.15625 -42.289062 10.128906 -43.160156 10.078125 -43.890625 C 10.035156 -44.617188 10.015625 -45.488281 10.015625 -46.5 C 10.015625 -47.226562 10.035156 -47.84375 10.078125 -48.34375 C 10.128906 -48.851562 10.15625 -49.289062 10.15625 -49.65625 C 10.15625 -50.195312 10.082031 -50.765625 9.9375 -51.359375 C 9.800781 -51.953125 9.734375 -52.570312 9.734375 -53.21875 C 9.734375 -54.039062 9.9375 -54.722656 10.34375 -55.265625 C 10.757812 -55.816406 10.96875 -56.457031 10.96875 -57.1875 C 10.96875 -57.832031 10.851562 -58.335938 10.625 -58.703125 C 10.394531 -59.066406 10.238281 -59.570312 10.15625 -60.21875 C 9.875 -61.488281 9.734375 -62.878906 9.734375 -64.390625 C 9.734375 -65.898438 9.734375 -67.390625 9.734375 -68.859375 C 9.734375 -69.492188 9.753906 -70.15625 9.796875 -70.84375 C 9.847656 -71.53125 9.875 -72.144531 9.875 -72.6875 C 9.875 -73.96875 9.78125 -75.039062 9.59375 -75.90625 C 9.414062 -76.78125 9.328125 -77.8125 9.328125 -79 C 9.328125 -82.65625 11.429688 -84.484375 15.640625 -84.484375 C 16.921875 -84.484375 18.128906 -84.617188 19.265625 -84.890625 C 20.410156 -85.171875 21.671875 -85.3125 23.046875 -85.3125 C 25.234375 -85.3125 26.898438 -85.171875 28.046875 -84.890625 C 29.191406 -84.617188 30.539062 -84.484375 32.09375 -84.484375 C 34.007812 -84.484375 35.65625 -84.617188 37.03125 -84.890625 C 38.40625 -85.171875 39.503906 -85.3125 40.328125 -85.3125 C 40.960938 -85.3125 41.828125 -85.195312 42.921875 -84.96875 C 44.023438 -84.738281 44.894531 -84.578125 45.53125 -84.484375 C 46.8125 -84.304688 48.09375 -84.101562 49.375 -83.875 C 50.65625 -83.644531 51.890625 -83.300781 53.078125 -82.84375 C 53.898438 -82.570312 54.742188 -82.132812 55.609375 -81.53125 C 56.484375 -80.9375 57.238281 -80.320312 57.875 -79.6875 C 58.695312 -78.957031 59.40625 -78.039062 60 -76.9375 C 60.59375 -75.84375 61.210938 -74.835938 61.859375 -73.921875 C 62.316406 -73.015625 62.75 -72.148438 63.15625 -71.328125 C 63.570312 -70.503906 63.78125 -69.585938 63.78125 -68.578125 L 63.78125 -66.65625 C 63.78125 -65.5625 63.894531 -64.488281 64.125 -63.4375 C 64.351562 -62.382812 64.46875 -61.265625 64.46875 -60.078125 C 64.46875 -57.785156 64.238281 -55.566406 63.78125 -53.421875 C 63.320312 -51.273438 62.632812 -49.148438 61.71875 -47.046875 C 61.539062 -46.679688 61.359375 -46.316406 61.171875 -45.953125 C 60.984375 -45.585938 60.890625 -45.175781 60.890625 -44.71875 C 60.890625 -44.070312 61.09375 -43.5 61.5 -43 C 61.914062 -42.5 62.3125 -42.019531 62.6875 -41.5625 C 62.957031 -41.195312 63.207031 -40.757812 63.4375 -40.25 C 63.664062 -39.75 63.867188 -39.269531 64.046875 -38.8125 C 64.234375 -38.175781 64.414062 -37.535156 64.59375 -36.890625 C 64.78125 -36.253906 64.921875 -35.660156 65.015625 -35.109375 C 65.109375 -34.648438 65.175781 -34.171875 65.21875 -33.671875 C 65.257812 -33.171875 65.328125 -32.691406 65.421875 -32.234375 C 65.609375 -31.503906 65.816406 -30.910156 66.046875 -30.453125 C 66.273438 -29.992188 66.390625 -29.398438 66.390625 -28.671875 C 66.390625 -27.847656 66.273438 -27.179688 66.046875 -26.671875 C 65.816406 -26.171875 65.703125 -25.507812 65.703125 -24.6875 C 65.703125 -24.320312 65.722656 -23.84375 65.765625 -23.25 C 65.804688 -22.65625 65.828125 -22.082031 65.828125 -21.53125 C 65.828125 -20.53125 65.78125 -19.59375 65.6875 -18.71875 C 65.601562 -17.851562 65.425781 -16.914062 65.15625 -15.90625 C 64.78125 -14.90625 64.476562 -13.921875 64.25 -12.953125 C 64.03125 -11.992188 63.597656 -11.0625 62.953125 -10.15625 C 62.398438 -9.332031 61.847656 -8.460938 61.296875 -7.546875 C 60.753906 -6.628906 60.070312 -5.894531 59.25 -5.34375 C 58.789062 -5.070312 58.378906 -4.910156 58.015625 -4.859375 C 57.648438 -4.816406 57.238281 -4.660156 56.78125 -4.390625 C 56.226562 -4.023438 55.816406 -3.679688 55.546875 -3.359375 C 55.273438 -3.035156 54.957031 -2.785156 54.59375 -2.609375 C 53.675781 -1.691406 52.625 -1.234375 51.4375 -1.234375 C 50.789062 -1.234375 50.257812 -1.4375 49.84375 -1.84375 C 49.4375 -2.257812 49.003906 -2.742188 48.546875 -3.296875 C 48.179688 -3.753906 47.789062 -4.140625 47.375 -4.453125 C 46.96875 -4.773438 46.398438 -4.9375 45.671875 -4.9375 C 44.753906 -4.9375 44.160156 -4.660156 43.890625 -4.109375 C 43.617188 -3.566406 43.34375 -2.925781 43.0625 -2.1875 C 42.789062 -1.644531 42.398438 -1.144531 41.890625 -0.6875 C 41.390625 -0.226562 40.546875 0 39.359375 0 Z M 14.953125 -79.40625 C 14.953125 -79.132812 15.066406 -78.835938 15.296875 -78.515625 C 15.523438 -78.203125 15.820312 -78.046875 16.1875 -78.046875 C 16.644531 -78.046875 17.007812 -78.203125 17.28125 -78.515625 C 17.550781 -78.835938 17.6875 -79.179688 17.6875 -79.546875 C 17.6875 -79.734375 17.550781 -79.984375 17.28125 -80.296875 C 17.007812 -80.617188 16.691406 -80.78125 16.328125 -80.78125 C 16.046875 -80.78125 15.742188 -80.664062 15.421875 -80.4375 C 15.109375 -80.207031 14.953125 -79.863281 14.953125 -79.40625 Z M 22.078125 -64.46875 C 22.078125 -63.820312 22.097656 -63.085938 22.140625 -62.265625 C 22.191406 -61.441406 22.21875 -60.53125 22.21875 -59.53125 L 22.21875 -55 C 22.21875 -52.800781 22.398438 -51.335938 22.765625 -50.609375 C 23.128906 -49.972656 23.628906 -49.582031 24.265625 -49.4375 C 24.910156 -49.300781 25.828125 -49.234375 27.015625 -49.234375 C 27.660156 -49.234375 28.644531 -49.164062 29.96875 -49.03125 C 31.289062 -48.894531 32.410156 -48.828125 33.328125 -48.828125 C 34.421875 -48.828125 35.609375 -48.914062 36.890625 -49.09375 C 38.171875 -49.28125 39.269531 -49.375 40.1875 -49.375 C 40.914062 -49.375 41.710938 -49.304688 42.578125 -49.171875 C 43.453125 -49.035156 44.347656 -48.96875 45.265625 -48.96875 C 47.367188 -48.96875 49.015625 -49.835938 50.203125 -51.578125 C 50.742188 -52.484375 51.148438 -53.597656 51.421875 -54.921875 C 51.703125 -56.253906 51.84375 -57.515625 51.84375 -58.703125 C 51.84375 -61.722656 51.773438 -63.894531 51.640625 -65.21875 C 51.503906 -66.539062 51.160156 -67.660156 50.609375 -68.578125 C 49.785156 -70.128906 48.6875 -71.269531 47.3125 -72 C 46.21875 -72.644531 45.03125 -73.035156 43.75 -73.171875 C 42.46875 -73.304688 41.144531 -73.375 39.78125 -73.375 C 37.3125 -73.375 34.910156 -73.304688 32.578125 -73.171875 C 30.242188 -73.035156 27.890625 -72.921875 25.515625 -72.828125 C 23.867188 -72.828125 22.882812 -72.4375 22.5625 -71.65625 C 22.238281 -70.882812 22.078125 -69.859375 22.078125 -68.578125 Z M 22.21875 -25.515625 C 22.21875 -24.597656 22.304688 -23.382812 22.484375 -21.875 C 22.671875 -20.363281 22.765625 -19.148438 22.765625 -18.234375 C 22.765625 -17.410156 22.71875 -16.722656 22.625 -16.171875 C 22.539062 -15.628906 22.5 -15.039062 22.5 -14.40625 C 22.5 -13.851562 22.65625 -13.300781 22.96875 -12.75 C 23.289062 -12.207031 24 -11.9375 25.09375 -11.9375 C 25.738281 -11.9375 26.398438 -11.976562 27.078125 -12.0625 C 27.765625 -12.15625 28.382812 -12.25 28.9375 -12.34375 C 29.664062 -12.4375 30.441406 -12.484375 31.265625 -12.484375 C 32.085938 -12.484375 32.957031 -12.484375 33.875 -12.484375 C 34.882812 -12.484375 35.890625 -12.367188 36.890625 -12.140625 C 37.898438 -11.910156 38.769531 -11.796875 39.5 -11.796875 C 40.414062 -11.796875 41.488281 -11.863281 42.71875 -12 C 43.957031 -12.132812 44.988281 -12.25 45.8125 -12.34375 C 46.8125 -12.34375 47.816406 -12.476562 48.828125 -12.75 C 49.835938 -13.03125 50.660156 -13.488281 51.296875 -14.125 C 52.210938 -15.039062 52.757812 -16.273438 52.9375 -17.828125 C 53.125 -19.660156 53.304688 -21.488281 53.484375 -23.3125 C 53.671875 -25.144531 53.765625 -27.203125 53.765625 -29.484375 C 53.765625 -31.128906 53.328125 -32.679688 52.453125 -34.140625 C 51.585938 -35.609375 50.378906 -36.664062 48.828125 -37.3125 C 48.003906 -37.582031 47.179688 -37.71875 46.359375 -37.71875 C 45.535156 -37.71875 44.664062 -37.71875 43.75 -37.71875 C 42.195312 -37.71875 40.550781 -37.851562 38.8125 -38.125 C 37.070312 -38.40625 35.425781 -38.546875 33.875 -38.546875 C 32.5 -38.546875 31.285156 -38.5 30.234375 -38.40625 C 29.191406 -38.3125 27.984375 -38.265625 26.609375 -38.265625 C 25.960938 -38.265625 25.320312 -38.21875 24.6875 -38.125 C 24.050781 -38.039062 23.503906 -37.8125 23.046875 -37.4375 C 22.679688 -37.070312 22.453125 -36.726562 22.359375 -36.40625 C 22.265625 -36.09375 22.21875 -35.707031 22.21875 -35.25 C 22.21875 -34.601562 22.265625 -33.9375 22.359375 -33.25 C 22.453125 -32.570312 22.5 -31.867188 22.5 -31.140625 C 22.5 -30.128906 22.453125 -29.164062 22.359375 -28.25 C 22.265625 -27.332031 22.21875 -26.421875 22.21875 -25.515625 Z M 54.59375 -49.65625 C 54.59375 -49.195312 54.84375 -48.710938 55.34375 -48.203125 C 55.84375 -47.703125 56.414062 -47.453125 57.0625 -47.453125 C 58.0625 -47.453125 58.5625 -47.957031 58.5625 -48.96875 C 58.5625 -49.601562 58.285156 -50.101562 57.734375 -50.46875 C 57.191406 -50.832031 56.644531 -51.015625 56.09375 -51.015625 C 55.09375 -51.015625 54.59375 -50.5625 54.59375 -49.65625 Z M 57.0625 -20.703125 C 57.0625 -20.066406 57.378906 -19.40625 58.015625 -18.71875 C 58.660156 -18.03125 59.300781 -17.6875 59.9375 -17.6875 C 60.664062 -17.6875 61.03125 -18.097656 61.03125 -18.921875 C 61.03125 -19.285156 60.800781 -19.925781 60.34375 -20.84375 C 59.882812 -21.757812 59.242188 -22.21875 58.421875 -22.21875 C 57.515625 -22.21875 57.0625 -21.710938 57.0625 -20.703125 Z M 57.0625 -20.703125 "/></g></g></g><g fill="#000000" fill-opacity="1"><g transform="translate(74.267067, 115.259549)"><g><path d="M 66.109375 0 C 65.472656 0 64.554688 -0.0664062 63.359375 -0.203125 C 62.171875 -0.335938 61.304688 -0.453125 60.765625 -0.546875 C 60.304688 -0.734375 59.820312 -0.847656 59.3125 -0.890625 C 58.8125 -0.929688 58.332031 -1 57.875 -1.09375 C 56.875 -1.375 56.097656 -2.109375 55.546875 -3.296875 C 55.179688 -3.835938 55 -4.359375 55 -4.859375 C 55 -5.367188 55 -5.941406 55 -6.578125 C 55 -7.222656 54.882812 -7.773438 54.65625 -8.234375 C 54.425781 -8.691406 54.128906 -9.144531 53.765625 -9.59375 C 53.210938 -10.601562 52.800781 -11.65625 52.53125 -12.75 C 52.4375 -13.394531 52.363281 -14.015625 52.3125 -14.609375 C 52.269531 -15.203125 52.160156 -15.816406 51.984375 -16.453125 C 51.617188 -17.640625 50.796875 -18.328125 49.515625 -18.515625 C 49.054688 -18.609375 48.570312 -18.65625 48.0625 -18.65625 C 47.5625 -18.65625 47.085938 -18.703125 46.640625 -18.796875 C 46.085938 -18.878906 45.515625 -19.007812 44.921875 -19.1875 C 44.328125 -19.375 43.753906 -19.515625 43.203125 -19.609375 C 42.109375 -19.609375 41.035156 -19.359375 39.984375 -18.859375 C 38.929688 -18.359375 37.945312 -18.109375 37.03125 -18.109375 C 36.394531 -18.109375 35.707031 -18.222656 34.96875 -18.453125 C 34.238281 -18.679688 33.28125 -18.796875 32.09375 -18.796875 C 30.8125 -18.796875 29.550781 -18.722656 28.3125 -18.578125 C 27.082031 -18.441406 26.007812 -18.375 25.09375 -18.375 C 24.1875 -18.375 23.457031 -18.28125 22.90625 -18.09375 C 22.351562 -17.914062 21.847656 -17.328125 21.390625 -16.328125 C 21.023438 -15.128906 20.632812 -13.523438 20.21875 -11.515625 C 19.8125 -9.503906 19.425781 -8 19.0625 -7 C 18.789062 -6.082031 18.539062 -5.144531 18.3125 -4.1875 C 18.082031 -3.226562 17.738281 -2.289062 17.28125 -1.375 C 17.007812 -0.820312 16.644531 -0.453125 16.1875 -0.265625 C 15.726562 -0.0859375 15.269531 0 14.8125 0 C 13.71875 0 12.597656 -0.0195312 11.453125 -0.0625 C 10.304688 -0.113281 9.1875 -0.1875 8.09375 -0.28125 C 5.894531 -0.550781 4.796875 -1.375 4.796875 -2.75 C 4.796875 -2.925781 4.816406 -3.101562 4.859375 -3.28125 C 4.910156 -3.46875 4.984375 -3.703125 5.078125 -3.984375 C 5.253906 -4.523438 5.503906 -5.070312 5.828125 -5.625 C 6.148438 -6.175781 6.398438 -6.722656 6.578125 -7.265625 C 6.765625 -7.910156 6.898438 -8.550781 6.984375 -9.1875 C 7.078125 -9.832031 7.171875 -10.472656 7.265625 -11.109375 C 7.453125 -12.117188 7.75 -13.144531 8.15625 -14.1875 C 8.570312 -15.238281 8.960938 -16.269531 9.328125 -17.28125 C 9.691406 -18.5625 10.03125 -19.796875 10.34375 -20.984375 C 10.664062 -22.171875 10.96875 -23.359375 11.25 -24.546875 C 11.519531 -25.734375 11.703125 -27.054688 11.796875 -28.515625 C 11.890625 -29.984375 12.117188 -31.3125 12.484375 -32.5 C 12.753906 -33.601562 13.023438 -34.566406 13.296875 -35.390625 C 13.578125 -36.210938 13.898438 -37.171875 14.265625 -38.265625 C 14.441406 -38.816406 14.664062 -39.34375 14.9375 -39.84375 C 15.21875 -40.34375 15.40625 -40.867188 15.5 -41.421875 C 15.675781 -42.148438 15.832031 -42.832031 15.96875 -43.46875 C 16.113281 -44.113281 16.273438 -44.757812 16.453125 -45.40625 C 16.734375 -46.675781 17.03125 -47.925781 17.34375 -49.15625 C 17.664062 -50.394531 18.007812 -51.613281 18.375 -52.8125 C 18.65625 -53.90625 18.976562 -54.929688 19.34375 -55.890625 C 19.707031 -56.847656 19.976562 -57.921875 20.15625 -59.109375 C 20.34375 -59.566406 20.457031 -60.070312 20.5 -60.625 C 20.550781 -61.175781 20.664062 -61.675781 20.84375 -62.125 C 21.03125 -62.769531 21.328125 -63.476562 21.734375 -64.25 C 22.148438 -65.03125 22.40625 -65.742188 22.5 -66.390625 C 22.863281 -67.484375 23.085938 -68.554688 23.171875 -69.609375 C 23.265625 -70.660156 23.492188 -71.78125 23.859375 -72.96875 C 24.222656 -74.25 24.585938 -75.4375 24.953125 -76.53125 C 25.328125 -77.625 25.648438 -78.8125 25.921875 -80.09375 C 26.191406 -81.195312 26.691406 -82.34375 27.421875 -83.53125 C 28.160156 -84.71875 29.582031 -85.3125 31.6875 -85.3125 C 32.144531 -85.3125 32.644531 -85.285156 33.1875 -85.234375 C 33.738281 -85.191406 34.289062 -85.171875 34.84375 -85.171875 C 36.125 -85.171875 37.332031 -85.144531 38.46875 -85.09375 C 39.613281 -85.050781 40.828125 -85.03125 42.109375 -85.03125 C 43.390625 -84.945312 44.441406 -84.742188 45.265625 -84.421875 C 46.085938 -84.097656 46.726562 -83.34375 47.1875 -82.15625 C 47.644531 -81.0625 47.984375 -79.875 48.203125 -78.59375 C 48.429688 -77.3125 48.640625 -76.078125 48.828125 -74.890625 C 49.015625 -73.703125 49.332031 -72.554688 49.78125 -71.453125 C 50.238281 -70.359375 50.46875 -69.171875 50.46875 -67.890625 C 50.46875 -67.253906 50.398438 -66.640625 50.265625 -66.046875 C 50.128906 -65.453125 50.0625 -64.878906 50.0625 -64.328125 C 50.0625 -63.316406 50.378906 -62.445312 51.015625 -61.71875 C 51.753906 -60.800781 52.375 -59.816406 52.875 -58.765625 C 53.375 -57.710938 53.804688 -56.6875 54.171875 -55.6875 C 54.628906 -54.5 54.90625 -53.332031 55 -52.1875 C 55.09375 -51.039062 55.320312 -49.875 55.6875 -48.6875 C 55.957031 -47.863281 56.253906 -47.085938 56.578125 -46.359375 C 56.898438 -45.628906 57.148438 -44.851562 57.328125 -44.03125 C 57.609375 -43.382812 57.75 -42.742188 57.75 -42.109375 C 58.019531 -39.640625 58.429688 -37.171875 58.984375 -34.703125 C 59.347656 -33.148438 59.847656 -31.773438 60.484375 -30.578125 C 61.128906 -29.390625 61.632812 -28.203125 62 -27.015625 C 62.269531 -26.097656 62.453125 -25.207031 62.546875 -24.34375 C 62.640625 -23.476562 62.773438 -22.539062 62.953125 -21.53125 C 63.140625 -20.34375 63.390625 -19.175781 63.703125 -18.03125 C 64.023438 -16.894531 64.367188 -15.726562 64.734375 -14.53125 C 65.554688 -11.976562 66.242188 -9.46875 66.796875 -7 C 66.972656 -6.445312 67.222656 -5.597656 67.546875 -4.453125 C 67.867188 -3.316406 68.03125 -2.378906 68.03125 -1.640625 C 68.03125 -0.546875 67.390625 0 66.109375 0 Z M 25.921875 -32.78125 C 25.921875 -31.863281 26.125 -31.265625 26.53125 -30.984375 C 26.945312 -30.710938 27.660156 -30.578125 28.671875 -30.578125 C 29.492188 -30.578125 30.242188 -30.644531 30.921875 -30.78125 C 31.609375 -30.925781 32.363281 -31 33.1875 -31 C 34.195312 -31 35.132812 -30.925781 36 -30.78125 C 36.875 -30.644531 37.90625 -30.578125 39.09375 -30.578125 C 39.726562 -30.578125 40.523438 -30.644531 41.484375 -30.78125 C 42.453125 -30.925781 43.117188 -31 43.484375 -31 C 43.941406 -31 44.507812 -30.925781 45.1875 -30.78125 C 45.875 -30.644531 46.398438 -30.578125 46.765625 -30.578125 C 47.410156 -30.578125 47.734375 -31.035156 47.734375 -31.953125 C 47.734375 -32.316406 47.707031 -32.660156 47.65625 -32.984375 C 47.613281 -33.304688 47.59375 -33.515625 47.59375 -33.609375 C 47.5 -34.703125 47.179688 -35.613281 46.640625 -36.34375 C 46.085938 -37.351562 45.695312 -38.335938 45.46875 -39.296875 C 45.238281 -40.253906 45.03125 -41.238281 44.84375 -42.25 C 44.757812 -43.15625 44.625 -44.066406 44.4375 -44.984375 C 44.257812 -45.898438 43.984375 -46.769531 43.609375 -47.59375 C 43.242188 -48.601562 42.878906 -49.539062 42.515625 -50.40625 C 42.148438 -51.269531 41.878906 -52.253906 41.703125 -53.359375 C 41.515625 -54.359375 41.328125 -55.359375 41.140625 -56.359375 C 40.960938 -57.367188 40.78125 -58.332031 40.59375 -59.25 C 40.414062 -60.257812 40.164062 -61.242188 39.84375 -62.203125 C 39.519531 -63.160156 39.222656 -64.097656 38.953125 -65.015625 C 38.859375 -65.285156 38.8125 -65.648438 38.8125 -66.109375 C 38.8125 -67.117188 39.453125 -68.035156 40.734375 -68.859375 C 41.285156 -69.128906 41.925781 -69.5625 42.65625 -70.15625 C 43.382812 -70.75 43.75 -71.410156 43.75 -72.140625 C 43.75 -72.785156 43.429688 -73.109375 42.796875 -73.109375 C 42.429688 -73.109375 41.992188 -72.878906 41.484375 -72.421875 C 40.984375 -71.960938 40.644531 -71.597656 40.46875 -71.328125 C 40.1875 -70.953125 39.910156 -70.648438 39.640625 -70.421875 C 39.367188 -70.203125 39.003906 -70.09375 38.546875 -70.09375 C 38.265625 -70.09375 37.988281 -70.132812 37.71875 -70.21875 C 37.445312 -70.3125 37.21875 -70.3125 37.03125 -70.21875 C 35.84375 -70.21875 35.25 -69.535156 35.25 -68.171875 C 35.15625 -67.804688 35.128906 -67.367188 35.171875 -66.859375 C 35.222656 -66.359375 35.203125 -65.972656 35.109375 -65.703125 C 34.929688 -64.691406 34.566406 -63.707031 34.015625 -62.75 C 33.460938 -61.789062 33.097656 -60.804688 32.921875 -59.796875 C 32.734375 -58.703125 32.546875 -57.601562 32.359375 -56.5 C 32.179688 -55.40625 31.957031 -54.3125 31.6875 -53.21875 C 31.59375 -52.757812 31.453125 -52.253906 31.265625 -51.703125 C 31.085938 -51.160156 30.90625 -50.660156 30.71875 -50.203125 C 30.625 -49.648438 30.414062 -49.125 30.09375 -48.625 C 29.78125 -48.125 29.53125 -47.644531 29.34375 -47.1875 C 29.257812 -46.632812 29.191406 -46.082031 29.140625 -45.53125 C 29.097656 -44.988281 28.984375 -44.441406 28.796875 -43.890625 C 28.710938 -43.253906 28.554688 -42.660156 28.328125 -42.109375 C 28.097656 -41.554688 27.890625 -41.007812 27.703125 -40.46875 C 27.335938 -39.457031 26.945312 -38.195312 26.53125 -36.6875 C 26.125 -35.175781 25.921875 -33.875 25.921875 -32.78125 Z M 52.9375 -34.96875 C 52.9375 -34.332031 53.300781 -33.644531 54.03125 -32.90625 C 54.769531 -32.175781 55.457031 -31.8125 56.09375 -31.8125 C 56.738281 -31.8125 57.0625 -32.179688 57.0625 -32.921875 C 57.0625 -33.378906 56.804688 -34.132812 56.296875 -35.1875 C 55.796875 -36.238281 55.179688 -36.765625 54.453125 -36.765625 C 54.085938 -36.765625 53.742188 -36.601562 53.421875 -36.28125 C 53.097656 -35.957031 52.9375 -35.519531 52.9375 -34.96875 Z M 52.9375 -34.96875 "/></g></g></g><g fill="#000000" fill-opacity="1"><g transform="translate(147.09186, 115.259549)"><g><path d="M 15.5 0.40625 C 14.582031 0.40625 13.617188 0.269531 12.609375 0 C 11.609375 -0.269531 10.878906 -0.726562 10.421875 -1.375 C 9.960938 -2.101562 9.734375 -2.945312 9.734375 -3.90625 C 9.734375 -4.863281 9.6875 -5.800781 9.59375 -6.71875 C 9.507812 -7.726562 9.46875 -8.734375 9.46875 -9.734375 C 9.46875 -10.742188 9.46875 -11.84375 9.46875 -13.03125 C 9.46875 -14.03125 9.554688 -15.035156 9.734375 -16.046875 C 9.921875 -17.054688 10.101562 -18.015625 10.28125 -18.921875 C 10.46875 -19.660156 10.71875 -20.394531 11.03125 -21.125 C 11.351562 -21.851562 11.515625 -22.628906 11.515625 -23.453125 C 11.515625 -23.910156 11.351562 -24.34375 11.03125 -24.75 C 10.71875 -25.164062 10.46875 -25.554688 10.28125 -25.921875 C 10.195312 -26.285156 10.15625 -26.671875 10.15625 -27.078125 C 10.15625 -27.492188 10.15625 -27.882812 10.15625 -28.25 C 10.15625 -29.351562 10.0625 -30.316406 9.875 -31.140625 C 9.6875 -31.960938 9.59375 -32.921875 9.59375 -34.015625 C 9.59375 -34.835938 9.660156 -35.773438 9.796875 -36.828125 C 9.941406 -37.878906 10.015625 -38.863281 10.015625 -39.78125 C 10.015625 -40.78125 9.921875 -41.941406 9.734375 -43.265625 C 9.554688 -44.597656 9.46875 -45.859375 9.46875 -47.046875 C 9.375 -49.054688 9.394531 -50.972656 9.53125 -52.796875 C 9.664062 -54.628906 9.734375 -56.28125 9.734375 -57.75 C 9.734375 -58.84375 9.6875 -60.097656 9.59375 -61.515625 C 9.507812 -62.929688 9.46875 -64.097656 9.46875 -65.015625 C 9.46875 -66.015625 9.488281 -66.878906 9.53125 -67.609375 C 9.570312 -68.347656 9.59375 -69.265625 9.59375 -70.359375 C 9.59375 -70.816406 9.570312 -71.296875 9.53125 -71.796875 C 9.488281 -72.304688 9.507812 -72.742188 9.59375 -73.109375 C 9.59375 -74.015625 9.6875 -74.8125 9.875 -75.5 C 10.0625 -76.1875 10.195312 -76.941406 10.28125 -77.765625 C 10.28125 -78.316406 10.234375 -78.84375 10.140625 -79.34375 C 10.054688 -79.84375 10.015625 -80.367188 10.015625 -80.921875 C 10.015625 -81.835938 10.265625 -82.707031 10.765625 -83.53125 C 11.265625 -84.351562 12.109375 -84.765625 13.296875 -84.765625 C 14.035156 -84.765625 14.722656 -84.71875 15.359375 -84.625 C 16.003906 -84.53125 16.78125 -84.484375 17.6875 -84.484375 C 18.601562 -84.484375 19.492188 -84.457031 20.359375 -84.40625 C 21.234375 -84.363281 22.128906 -84.300781 23.046875 -84.21875 C 24.046875 -84.125 24.863281 -83.9375 25.5 -83.65625 C 26.144531 -83.382812 26.648438 -82.703125 27.015625 -81.609375 C 27.378906 -80.691406 27.765625 -79.867188 28.171875 -79.140625 C 28.585938 -78.410156 29.023438 -77.632812 29.484375 -76.8125 C 29.941406 -75.988281 30.285156 -75.09375 30.515625 -74.125 C 30.742188 -73.164062 31.132812 -72.273438 31.6875 -71.453125 C 32.507812 -70.453125 33.101562 -69.492188 33.46875 -68.578125 C 33.644531 -68.117188 33.828125 -67.523438 34.015625 -66.796875 C 34.285156 -65.785156 34.625 -64.820312 35.03125 -63.90625 C 35.445312 -63 35.882812 -62.085938 36.34375 -61.171875 C 37.164062 -59.429688 38.007812 -57.710938 38.875 -56.015625 C 39.75 -54.328125 40.644531 -52.617188 41.5625 -50.890625 C 42.019531 -50.148438 42.519531 -49.367188 43.0625 -48.546875 C 43.613281 -47.722656 43.890625 -46.859375 43.890625 -45.953125 C 43.890625 -45.304688 43.660156 -44.707031 43.203125 -44.15625 C 42.742188 -43.613281 42.515625 -43.113281 42.515625 -42.65625 C 42.515625 -42.195312 42.789062 -41.832031 43.34375 -41.5625 C 43.707031 -41.46875 44.046875 -41.394531 44.359375 -41.34375 C 44.679688 -41.300781 45.03125 -41.144531 45.40625 -40.875 C 45.675781 -40.601562 45.898438 -40.28125 46.078125 -39.90625 C 46.265625 -39.539062 46.453125 -39.222656 46.640625 -38.953125 C 47.085938 -38.128906 47.585938 -37.375 48.140625 -36.6875 C 48.691406 -36 49.148438 -35.15625 49.515625 -34.15625 C 49.691406 -33.875 49.847656 -33.410156 49.984375 -32.765625 C 50.128906 -32.128906 50.289062 -31.539062 50.46875 -31 C 50.65625 -30.632812 50.863281 -30.265625 51.09375 -29.890625 C 51.320312 -29.523438 51.570312 -29.34375 51.84375 -29.34375 C 52.488281 -29.34375 52.878906 -29.6875 53.015625 -30.375 C 53.148438 -31.0625 53.21875 -31.632812 53.21875 -32.09375 C 53.21875 -34.195312 53.171875 -36.367188 53.078125 -38.609375 C 52.984375 -40.847656 52.9375 -42.789062 52.9375 -44.4375 C 52.9375 -45.90625 53.050781 -47.253906 53.28125 -48.484375 C 53.507812 -49.722656 53.625 -50.84375 53.625 -51.84375 C 53.625 -52.851562 53.53125 -53.695312 53.34375 -54.375 C 53.164062 -55.0625 53.078125 -55.910156 53.078125 -56.921875 C 53.078125 -57.921875 53.164062 -58.695312 53.34375 -59.25 C 53.53125 -59.800781 53.625 -60.671875 53.625 -61.859375 C 53.625 -62.859375 53.554688 -64.046875 53.421875 -65.421875 C 53.285156 -66.796875 53.21875 -67.941406 53.21875 -68.859375 C 53.21875 -69.859375 53.304688 -70.742188 53.484375 -71.515625 C 53.671875 -72.296875 53.765625 -73.144531 53.765625 -74.0625 C 53.765625 -75.070312 53.71875 -76.125 53.625 -77.21875 C 53.53125 -78.3125 53.484375 -79.410156 53.484375 -80.515625 C 53.484375 -81.054688 53.578125 -81.785156 53.765625 -82.703125 C 53.953125 -83.617188 54.410156 -84.257812 55.140625 -84.625 C 55.867188 -84.988281 56.664062 -85.171875 57.53125 -85.171875 C 58.40625 -85.171875 59.207031 -85.171875 59.9375 -85.171875 C 60.757812 -85.171875 61.628906 -85.101562 62.546875 -84.96875 C 63.460938 -84.832031 64.191406 -84.441406 64.734375 -83.796875 C 65.285156 -83.160156 65.5625 -82.382812 65.5625 -81.46875 C 65.65625 -81.375 65.703125 -80.414062 65.703125 -78.59375 C 65.703125 -77.863281 65.65625 -77.085938 65.5625 -76.265625 C 65.46875 -75.441406 65.421875 -74.570312 65.421875 -73.65625 C 65.421875 -72.101562 65.46875 -70.640625 65.5625 -69.265625 C 65.65625 -67.890625 65.703125 -66.835938 65.703125 -66.109375 L 65.703125 -60.625 C 65.703125 -59.613281 65.742188 -58.648438 65.828125 -57.734375 C 65.921875 -56.828125 65.96875 -55.867188 65.96875 -54.859375 C 65.96875 -53.398438 65.851562 -52.03125 65.625 -50.75 C 65.394531 -49.46875 65.28125 -48.050781 65.28125 -46.5 C 65.28125 -45.851562 65.300781 -45.1875 65.34375 -44.5 C 65.394531 -43.820312 65.46875 -43.113281 65.5625 -42.375 C 65.738281 -40.363281 65.78125 -38.304688 65.6875 -36.203125 C 65.601562 -34.097656 65.5625 -32 65.5625 -29.90625 C 65.5625 -28.988281 65.492188 -28.046875 65.359375 -27.078125 C 65.222656 -26.117188 65.15625 -25.140625 65.15625 -24.140625 C 65.15625 -23.222656 65.265625 -22.515625 65.484375 -22.015625 C 65.710938 -21.515625 65.828125 -20.757812 65.828125 -19.75 C 65.828125 -19.113281 65.78125 -18.566406 65.6875 -18.109375 C 65.601562 -17.648438 65.5625 -16.960938 65.5625 -16.046875 C 65.5625 -15.410156 65.582031 -14.75 65.625 -14.0625 C 65.675781 -13.375 65.703125 -12.800781 65.703125 -12.34375 C 65.703125 -11.332031 65.628906 -10.300781 65.484375 -9.25 C 65.347656 -8.207031 65.28125 -7.179688 65.28125 -6.171875 C 65.375 -5.804688 65.441406 -5.347656 65.484375 -4.796875 C 65.535156 -4.253906 65.5625 -3.753906 65.5625 -3.296875 C 65.46875 -2.285156 64.914062 -1.484375 63.90625 -0.890625 C 62.90625 -0.296875 61.582031 0 59.9375 0 C 59.019531 0 58.082031 -0.0195312 57.125 -0.0625 C 56.164062 -0.113281 55.179688 -0.273438 54.171875 -0.546875 C 52.347656 -1.003906 50.976562 -1.828125 50.0625 -3.015625 C 49.507812 -3.742188 49.003906 -4.472656 48.546875 -5.203125 C 48.097656 -5.941406 47.734375 -6.769531 47.453125 -7.6875 C 47.179688 -8.6875 46.835938 -9.664062 46.421875 -10.625 C 46.015625 -11.582031 45.535156 -12.519531 44.984375 -13.4375 C 44.617188 -14.257812 44.296875 -15.054688 44.015625 -15.828125 C 43.742188 -16.609375 43.472656 -17.457031 43.203125 -18.375 C 42.929688 -19.5625 42.472656 -20.707031 41.828125 -21.8125 C 41.554688 -22.269531 41.191406 -22.722656 40.734375 -23.171875 C 40.273438 -23.628906 39.816406 -24.269531 39.359375 -25.09375 C 39.179688 -25.644531 39.046875 -26.171875 38.953125 -26.671875 C 38.859375 -27.179688 38.722656 -27.753906 38.546875 -28.390625 C 38.265625 -29.398438 37.875 -30.335938 37.375 -31.203125 C 36.875 -32.066406 36.394531 -32.957031 35.9375 -33.875 C 35.570312 -34.695312 35.179688 -35.492188 34.765625 -36.265625 C 34.359375 -37.046875 33.925781 -37.847656 33.46875 -38.671875 C 33.007812 -39.492188 32.597656 -40.363281 32.234375 -41.28125 C 31.867188 -42.195312 31.410156 -43.113281 30.859375 -44.03125 C 29.941406 -45.675781 29.117188 -47.320312 28.390625 -48.96875 C 28.023438 -49.882812 27.679688 -50.796875 27.359375 -51.703125 C 27.035156 -52.617188 26.738281 -53.535156 26.46875 -54.453125 C 25.832031 -57.015625 24.921875 -58.296875 23.734375 -58.296875 C 23.085938 -58.296875 22.765625 -57.703125 22.765625 -56.515625 C 22.671875 -56.054688 22.671875 -55.570312 22.765625 -55.0625 C 22.859375 -54.5625 22.90625 -54.175781 22.90625 -53.90625 C 22.8125 -52.988281 22.71875 -52.070312 22.625 -51.15625 C 22.539062 -50.238281 22.40625 -49.28125 22.21875 -48.28125 C 21.851562 -47 21.414062 -45.804688 20.90625 -44.703125 C 20.40625 -43.609375 20.15625 -42.5625 20.15625 -41.5625 C 20.15625 -40.644531 20.523438 -39.679688 21.265625 -38.671875 C 21.710938 -38.035156 22.003906 -37.375 22.140625 -36.6875 C 22.285156 -36 22.359375 -35.289062 22.359375 -34.5625 C 22.359375 -33.46875 22.285156 -32.347656 22.140625 -31.203125 C 22.003906 -30.054688 21.9375 -28.753906 21.9375 -27.296875 C 21.9375 -26.378906 22.03125 -25.53125 22.21875 -24.75 C 22.40625 -23.976562 22.5 -23.085938 22.5 -22.078125 C 22.5 -21.253906 22.40625 -20.453125 22.21875 -19.671875 C 22.03125 -18.898438 21.9375 -18.101562 21.9375 -17.28125 C 21.9375 -16.914062 21.957031 -16.570312 22 -16.25 C 22.050781 -15.925781 22.078125 -15.582031 22.078125 -15.21875 C 22.078125 -14.3125 22.050781 -13.445312 22 -12.625 C 21.957031 -11.800781 21.894531 -10.929688 21.8125 -10.015625 L 21.8125 -7.125 C 21.8125 -6.21875 21.851562 -5.421875 21.9375 -4.734375 C 22.03125 -4.046875 22.078125 -3.289062 22.078125 -2.46875 C 22.078125 -1.1875 21.347656 -0.363281 19.890625 0 C 19.335938 0.09375 18.671875 0.179688 17.890625 0.265625 C 17.117188 0.359375 16.320312 0.40625 15.5 0.40625 Z M 17 -69.53125 C 17 -68.070312 17.734375 -67.34375 19.203125 -67.34375 C 19.929688 -67.34375 20.5 -67.613281 20.90625 -68.15625 C 21.320312 -68.707031 21.53125 -69.304688 21.53125 -69.953125 C 21.4375 -70.410156 21.207031 -70.890625 20.84375 -71.390625 C 20.476562 -71.890625 19.929688 -72.140625 19.203125 -72.140625 C 18.378906 -72.140625 17.804688 -71.84375 17.484375 -71.25 C 17.160156 -70.65625 17 -70.082031 17 -69.53125 Z M 17 -69.53125 "/></g></g></g><g fill="#000000" fill-opacity="1"><g transform="translate(222.522412, 115.259549)"><g><path d="M 16.1875 0 C 15.269531 0 14.398438 -0.0664062 13.578125 -0.203125 C 12.753906 -0.335938 12.023438 -0.632812 11.390625 -1.09375 C 10.566406 -1.644531 10.15625 -2.695312 10.15625 -4.25 C 10.15625 -4.976562 10.195312 -5.6875 10.28125 -6.375 C 10.375 -7.0625 10.421875 -7.722656 10.421875 -8.359375 C 10.421875 -9.734375 10.421875 -10.785156 10.421875 -11.515625 C 10.421875 -12.253906 10.332031 -13.21875 10.15625 -14.40625 C 10.0625 -15.6875 9.988281 -16.757812 9.9375 -17.625 C 9.894531 -18.488281 9.828125 -19.515625 9.734375 -20.703125 C 9.734375 -21.441406 9.6875 -22.175781 9.59375 -22.90625 C 9.507812 -23.632812 9.46875 -24.226562 9.46875 -24.6875 C 9.46875 -25.507812 9.582031 -26.582031 9.8125 -27.90625 C 10.039062 -29.238281 10.15625 -30.222656 10.15625 -30.859375 C 10.15625 -31.867188 10.082031 -33.332031 9.9375 -35.25 C 9.800781 -37.164062 9.734375 -38.71875 9.734375 -39.90625 C 9.734375 -41.925781 9.820312 -43.617188 10 -44.984375 C 10.1875 -46.359375 10.28125 -47.59375 10.28125 -48.6875 L 10.28125 -54.453125 C 10.28125 -55.179688 10.300781 -56.046875 10.34375 -57.046875 C 10.394531 -58.054688 10.421875 -58.882812 10.421875 -59.53125 C 10.421875 -60.8125 10.304688 -62.226562 10.078125 -63.78125 C 9.847656 -65.332031 9.734375 -67.066406 9.734375 -68.984375 C 9.734375 -70.453125 9.78125 -71.6875 9.875 -72.6875 C 9.96875 -73.695312 10.054688 -74.84375 10.140625 -76.125 C 10.234375 -77.40625 10.28125 -79.140625 10.28125 -81.328125 C 10.28125 -82.609375 10.644531 -83.410156 11.375 -83.734375 C 12.113281 -84.054688 12.941406 -84.21875 13.859375 -84.21875 C 15.046875 -84.21875 15.890625 -84.238281 16.390625 -84.28125 C 16.890625 -84.320312 17.460938 -84.34375 18.109375 -84.34375 C 19.015625 -84.34375 19.742188 -84.296875 20.296875 -84.203125 C 20.847656 -84.117188 21.394531 -84.078125 21.9375 -84.078125 C 22.675781 -84.078125 23.410156 -84.164062 24.140625 -84.34375 C 24.867188 -84.53125 25.828125 -84.625 27.015625 -84.625 C 27.835938 -84.625 28.632812 -84.597656 29.40625 -84.546875 C 30.1875 -84.503906 30.988281 -84.484375 31.8125 -84.484375 C 32.726562 -84.484375 33.578125 -84.53125 34.359375 -84.625 C 35.140625 -84.71875 35.753906 -84.765625 36.203125 -84.765625 C 36.941406 -84.765625 37.695312 -84.71875 38.46875 -84.625 C 39.25 -84.53125 39.914062 -84.484375 40.46875 -84.484375 C 41.289062 -84.484375 42.085938 -84.550781 42.859375 -84.6875 C 43.640625 -84.832031 44.441406 -84.90625 45.265625 -84.90625 C 46.085938 -84.90625 47.140625 -84.789062 48.421875 -84.5625 C 49.703125 -84.332031 50.753906 -83.988281 51.578125 -83.53125 C 52.304688 -83.164062 52.671875 -82.613281 52.671875 -81.875 C 52.671875 -81.507812 52.625 -81.191406 52.53125 -80.921875 C 52.4375 -80.648438 52.390625 -80.375 52.390625 -80.09375 C 52.390625 -79.457031 52.664062 -79.140625 53.21875 -79.140625 C 53.851562 -79.140625 54.398438 -79.320312 54.859375 -79.6875 C 55.316406 -80.050781 55.820312 -80.234375 56.375 -80.234375 C 56.832031 -80.234375 57.242188 -80.117188 57.609375 -79.890625 C 57.972656 -79.660156 58.335938 -79.410156 58.703125 -79.140625 C 59.617188 -78.679688 60.441406 -78.15625 61.171875 -77.5625 C 61.898438 -76.96875 62.492188 -76.164062 62.953125 -75.15625 C 63.867188 -73.425781 64.601562 -71.644531 65.15625 -69.8125 C 65.238281 -69.445312 65.328125 -69.054688 65.421875 -68.640625 C 65.515625 -68.234375 65.5625 -67.894531 65.5625 -67.625 C 65.5625 -66.800781 65.582031 -66.046875 65.625 -65.359375 C 65.675781 -64.671875 65.703125 -63.914062 65.703125 -63.09375 C 65.703125 -62.175781 65.609375 -61.28125 65.421875 -60.40625 C 65.242188 -59.539062 65.15625 -58.742188 65.15625 -58.015625 C 65.15625 -57.097656 65.289062 -56.019531 65.5625 -54.78125 C 65.832031 -53.550781 65.96875 -52.34375 65.96875 -51.15625 C 65.96875 -50.15625 65.875 -48.921875 65.6875 -47.453125 C 65.507812 -45.992188 65.421875 -44.898438 65.421875 -44.171875 C 65.421875 -43.160156 65.46875 -42.148438 65.5625 -41.140625 C 65.65625 -40.140625 65.703125 -39.046875 65.703125 -37.859375 C 65.703125 -36.847656 65.628906 -35.722656 65.484375 -34.484375 C 65.347656 -33.253906 65.28125 -32.179688 65.28125 -31.265625 L 65.28125 -24.28125 C 65.28125 -23.09375 65.234375 -21.859375 65.140625 -20.578125 C 65.054688 -19.296875 64.96875 -18.0625 64.875 -16.875 C 64.78125 -16.320312 64.753906 -15.769531 64.796875 -15.21875 C 64.847656 -14.675781 64.828125 -14.128906 64.734375 -13.578125 C 64.554688 -12.390625 64.097656 -11.289062 63.359375 -10.28125 C 62.992188 -9.914062 62.601562 -9.570312 62.1875 -9.25 C 61.78125 -8.9375 61.394531 -8.550781 61.03125 -8.09375 L 59.53125 -6.03125 C 58.882812 -5.300781 58.015625 -4.640625 56.921875 -4.046875 C 55.828125 -3.453125 54.773438 -2.925781 53.765625 -2.46875 C 51.566406 -1.375 49.414062 -0.6875 47.3125 -0.40625 C 46.945312 -0.320312 46.445312 -0.28125 45.8125 -0.28125 C 44.894531 -0.28125 44 -0.320312 43.125 -0.40625 C 42.257812 -0.5 41.375 -0.59375 40.46875 -0.6875 C 39.820312 -0.78125 39.222656 -0.828125 38.671875 -0.828125 C 38.128906 -0.828125 37.535156 -0.828125 36.890625 -0.828125 C 34.878906 -0.828125 33.28125 -0.6875 32.09375 -0.40625 C 30.90625 -0.132812 29.625 0 28.25 0 C 27.25 0 26.359375 -0.046875 25.578125 -0.140625 C 24.796875 -0.234375 23.8125 -0.28125 22.625 -0.28125 C 21.4375 -0.28125 20.363281 -0.234375 19.40625 -0.140625 C 18.445312 -0.046875 17.375 0 16.1875 0 Z M 11.796875 -34.15625 C 11.796875 -33.695312 11.953125 -33.257812 12.265625 -32.84375 C 12.585938 -32.4375 12.929688 -32.234375 13.296875 -32.234375 C 13.753906 -32.234375 14.117188 -32.414062 14.390625 -32.78125 C 14.671875 -33.144531 14.8125 -33.507812 14.8125 -33.875 C 14.8125 -34.238281 14.671875 -34.601562 14.390625 -34.96875 C 14.117188 -35.34375 13.753906 -35.53125 13.296875 -35.53125 C 12.296875 -35.53125 11.796875 -35.070312 11.796875 -34.15625 Z M 21.671875 -52.25 C 21.671875 -51.15625 21.691406 -49.988281 21.734375 -48.75 C 21.785156 -47.519531 21.851562 -46.539062 21.9375 -45.8125 C 22.03125 -44.988281 22.144531 -44.1875 22.28125 -43.40625 C 22.425781 -42.632812 22.5 -41.835938 22.5 -41.015625 C 22.5 -40.273438 22.382812 -39.445312 22.15625 -38.53125 C 21.925781 -37.625 21.8125 -36.664062 21.8125 -35.65625 C 21.8125 -35.019531 21.832031 -34.425781 21.875 -33.875 C 21.914062 -33.320312 21.9375 -32.773438 21.9375 -32.234375 C 21.9375 -31.585938 21.914062 -30.941406 21.875 -30.296875 C 21.832031 -29.660156 21.8125 -28.976562 21.8125 -28.25 C 21.8125 -26.882812 21.945312 -25.628906 22.21875 -24.484375 C 22.488281 -23.335938 22.625 -21.988281 22.625 -20.4375 C 22.625 -19.519531 22.554688 -18.785156 22.421875 -18.234375 C 22.285156 -17.691406 22.21875 -16.960938 22.21875 -16.046875 C 22.21875 -14.859375 22.488281 -13.851562 23.03125 -13.03125 C 23.582031 -12.207031 24.726562 -11.796875 26.46875 -11.796875 C 26.925781 -11.796875 27.382812 -11.835938 27.84375 -11.921875 C 28.300781 -12.015625 28.710938 -12.0625 29.078125 -12.0625 C 29.628906 -12.0625 30.039062 -11.972656 30.3125 -11.796875 C 31.132812 -11.429688 32.226562 -11.316406 33.59375 -11.453125 C 34.96875 -11.585938 36.023438 -11.65625 36.765625 -11.65625 C 37.492188 -11.65625 38.15625 -11.5625 38.75 -11.375 C 39.34375 -11.195312 39.957031 -11.109375 40.59375 -11.109375 C 41.144531 -11.109375 41.648438 -11.195312 42.109375 -11.375 C 42.566406 -11.5625 42.84375 -11.65625 42.9375 -11.65625 C 43.382812 -12.019531 43.882812 -12.269531 44.4375 -12.40625 C 44.988281 -12.550781 45.535156 -12.664062 46.078125 -12.75 C 46.898438 -12.84375 47.722656 -12.957031 48.546875 -13.09375 C 49.367188 -13.226562 50.101562 -13.617188 50.75 -14.265625 C 51.664062 -15.265625 52.328125 -16.492188 52.734375 -17.953125 C 53.148438 -19.421875 53.398438 -20.796875 53.484375 -22.078125 C 53.484375 -22.628906 53.578125 -23.15625 53.765625 -23.65625 C 53.953125 -24.15625 54.316406 -24.546875 54.859375 -24.828125 C 55.585938 -25.097656 56.363281 -25.367188 57.1875 -25.640625 C 58.007812 -25.921875 58.421875 -26.609375 58.421875 -27.703125 C 58.421875 -28.796875 58.054688 -29.617188 57.328125 -30.171875 C 56.691406 -30.628906 55.914062 -30.90625 55 -31 C 54.082031 -31.09375 53.625 -31.734375 53.625 -32.921875 C 53.625 -33.378906 53.671875 -33.789062 53.765625 -34.15625 C 53.859375 -34.519531 53.90625 -34.882812 53.90625 -35.25 C 53.90625 -35.707031 53.878906 -36.117188 53.828125 -36.484375 C 53.785156 -36.847656 53.71875 -37.210938 53.625 -37.578125 C 53.53125 -38.679688 53.367188 -39.960938 53.140625 -41.421875 C 52.921875 -42.878906 52.8125 -44.390625 52.8125 -45.953125 C 52.8125 -47.140625 52.851562 -48.328125 52.9375 -49.515625 C 53.03125 -50.703125 53.078125 -51.890625 53.078125 -53.078125 C 53.078125 -54.085938 53.050781 -55.003906 53 -55.828125 C 52.957031 -56.648438 52.9375 -57.515625 52.9375 -58.421875 C 52.9375 -59.160156 53.023438 -60.144531 53.203125 -61.375 C 53.390625 -62.613281 53.484375 -63.550781 53.484375 -64.1875 C 53.484375 -65.5625 53.300781 -66.75 52.9375 -67.75 C 52.664062 -68.394531 52.253906 -68.945312 51.703125 -69.40625 C 51.160156 -69.863281 50.519531 -70.273438 49.78125 -70.640625 C 49.144531 -71.003906 48.53125 -71.34375 47.9375 -71.65625 C 47.34375 -71.976562 46.679688 -72.234375 45.953125 -72.421875 C 45.671875 -72.515625 45.414062 -72.582031 45.1875 -72.625 C 44.957031 -72.664062 44.707031 -72.6875 44.4375 -72.6875 C 43.800781 -72.6875 42.863281 -72.59375 41.625 -72.40625 C 40.394531 -72.226562 39 -72.140625 37.4375 -72.140625 C 36.34375 -72.140625 35.242188 -72.226562 34.140625 -72.40625 C 33.046875 -72.59375 32 -72.6875 31 -72.6875 C 30.351562 -72.6875 29.707031 -72.664062 29.0625 -72.625 C 28.425781 -72.582031 27.789062 -72.5625 27.15625 -72.5625 C 26.882812 -72.644531 26.585938 -72.6875 26.265625 -72.6875 C 25.941406 -72.6875 25.597656 -72.6875 25.234375 -72.6875 C 24.597656 -72.6875 23.984375 -72.550781 23.390625 -72.28125 C 22.796875 -72.007812 22.5 -71.367188 22.5 -70.359375 C 22.5 -69.898438 22.539062 -69.421875 22.625 -68.921875 C 22.71875 -68.421875 22.765625 -67.988281 22.765625 -67.625 C 22.765625 -66.707031 22.648438 -65.835938 22.421875 -65.015625 C 22.191406 -64.191406 22.078125 -63.273438 22.078125 -62.265625 C 22.078125 -61.628906 22.097656 -60.96875 22.140625 -60.28125 C 22.191406 -59.59375 22.21875 -59.019531 22.21875 -58.5625 C 22.21875 -57.644531 22.125 -56.660156 21.9375 -55.609375 C 21.757812 -54.566406 21.671875 -53.445312 21.671875 -52.25 Z M 43.34375 -7.546875 C 43.34375 -7.179688 43.476562 -6.8125 43.75 -6.4375 C 44.03125 -6.070312 44.351562 -5.890625 44.71875 -5.890625 C 45.539062 -5.890625 45.953125 -6.300781 45.953125 -7.125 C 45.953125 -8.226562 45.492188 -8.78125 44.578125 -8.78125 C 43.753906 -8.78125 43.34375 -8.367188 43.34375 -7.546875 Z M 43.34375 -7.546875 "/></g></g></g><g fill="#000000" fill-opacity="1"><g transform="translate(296.581514, 115.259549)"><g><path d="M 16.1875 0 C 15.90625 0 15.582031 0 15.21875 0 C 14.851562 0 14.535156 -0.046875 14.265625 -0.140625 C 13.898438 -0.316406 13.460938 -0.40625 12.953125 -0.40625 C 12.453125 -0.40625 11.972656 -0.453125 11.515625 -0.546875 C 10.878906 -0.734375 10.378906 -1.03125 10.015625 -1.4375 C 9.648438 -1.851562 9.46875 -2.5625 9.46875 -3.5625 C 9.46875 -4.289062 9.535156 -5.019531 9.671875 -5.75 C 9.804688 -6.488281 9.921875 -7.085938 10.015625 -7.546875 C 10.285156 -8.460938 10.71875 -9.054688 11.3125 -9.328125 C 11.90625 -9.597656 12.566406 -9.914062 13.296875 -10.28125 C 13.671875 -10.46875 14.0625 -10.8125 14.46875 -11.3125 C 14.882812 -11.8125 15.09375 -12.289062 15.09375 -12.75 C 15.09375 -13.488281 14.722656 -13.859375 13.984375 -13.859375 C 13.523438 -13.859375 13.085938 -13.742188 12.671875 -13.515625 C 12.265625 -13.285156 11.835938 -13.171875 11.390625 -13.171875 C 10.566406 -13.171875 10.015625 -13.785156 9.734375 -15.015625 C 9.460938 -16.253906 9.328125 -17.328125 9.328125 -18.234375 C 9.328125 -19.515625 9.394531 -20.703125 9.53125 -21.796875 C 9.664062 -22.898438 9.734375 -24.046875 9.734375 -25.234375 C 9.734375 -25.878906 9.6875 -26.585938 9.59375 -27.359375 C 9.507812 -28.140625 9.46875 -28.847656 9.46875 -29.484375 C 9.46875 -30.492188 9.535156 -31.453125 9.671875 -32.359375 C 9.804688 -33.273438 9.875 -34.191406 9.875 -35.109375 C 9.875 -35.835938 9.847656 -36.59375 9.796875 -37.375 C 9.753906 -38.15625 9.734375 -38.863281 9.734375 -39.5 C 9.734375 -40.78125 9.78125 -42.148438 9.875 -43.609375 C 9.96875 -45.078125 10.015625 -46.453125 10.015625 -47.734375 C 10.015625 -49.015625 9.96875 -50.25 9.875 -51.4375 C 9.78125 -52.625 9.734375 -53.71875 9.734375 -54.71875 C 9.734375 -56.09375 9.753906 -57.144531 9.796875 -57.875 C 9.847656 -58.613281 9.921875 -59.367188 10.015625 -60.140625 C 10.109375 -60.921875 10.15625 -61.992188 10.15625 -63.359375 C 10.15625 -64.179688 10.109375 -65.003906 10.015625 -65.828125 C 9.921875 -66.648438 9.828125 -67.472656 9.734375 -68.296875 C 9.640625 -69.210938 9.59375 -70.082031 9.59375 -70.90625 C 9.59375 -71.726562 9.59375 -72.550781 9.59375 -73.375 C 9.59375 -74.195312 9.640625 -75.066406 9.734375 -75.984375 C 9.828125 -76.898438 9.875 -77.675781 9.875 -78.3125 C 9.875 -78.675781 9.847656 -79.039062 9.796875 -79.40625 C 9.753906 -79.78125 9.734375 -80.148438 9.734375 -80.515625 C 9.734375 -80.972656 9.78125 -81.472656 9.875 -82.015625 C 9.96875 -82.566406 10.148438 -83.023438 10.421875 -83.390625 C 10.785156 -83.847656 11.378906 -84.144531 12.203125 -84.28125 C 13.023438 -84.414062 13.800781 -84.53125 14.53125 -84.625 L 15.640625 -84.625 C 16.179688 -84.625 16.726562 -84.597656 17.28125 -84.546875 C 17.832031 -84.503906 18.425781 -84.484375 19.0625 -84.484375 C 19.332031 -84.390625 19.601562 -84.363281 19.875 -84.40625 C 20.15625 -84.457031 20.429688 -84.4375 20.703125 -84.34375 C 21.523438 -84.164062 22.03125 -83.753906 22.21875 -83.109375 C 22.3125 -82.835938 22.359375 -82.492188 22.359375 -82.078125 C 22.359375 -81.671875 22.40625 -81.238281 22.5 -80.78125 C 22.5 -80.320312 22.519531 -79.84375 22.5625 -79.34375 C 22.601562 -78.84375 22.625 -78.363281 22.625 -77.90625 C 22.625 -77.351562 22.578125 -76.847656 22.484375 -76.390625 C 22.398438 -75.929688 22.3125 -75.519531 22.21875 -75.15625 C 22.125 -74.695312 22.007812 -74.285156 21.875 -73.921875 C 21.738281 -73.554688 21.671875 -73.238281 21.671875 -72.96875 C 21.671875 -72.507812 21.757812 -72.117188 21.9375 -71.796875 C 22.125 -71.484375 22.3125 -71.097656 22.5 -70.640625 C 22.582031 -70.359375 22.671875 -70.007812 22.765625 -69.59375 C 22.859375 -69.1875 22.90625 -68.710938 22.90625 -68.171875 C 22.90625 -67.617188 22.878906 -67.046875 22.828125 -66.453125 C 22.785156 -65.859375 22.765625 -65.285156 22.765625 -64.734375 C 22.859375 -63.546875 22.90625 -62.398438 22.90625 -61.296875 C 22.90625 -60.203125 22.90625 -59.0625 22.90625 -57.875 C 22.90625 -55.59375 22.789062 -53.375 22.5625 -51.21875 C 22.332031 -49.070312 22.21875 -47.269531 22.21875 -45.8125 C 22.21875 -44.53125 22.265625 -43.453125 22.359375 -42.578125 C 22.453125 -41.710938 22.5 -40.914062 22.5 -40.1875 C 22.5 -39 22.425781 -38.015625 22.28125 -37.234375 C 22.144531 -36.460938 22.078125 -35.476562 22.078125 -34.28125 C 22.078125 -33.09375 22.097656 -31.90625 22.140625 -30.71875 C 22.191406 -29.53125 22.21875 -28.296875 22.21875 -27.015625 C 22.21875 -26.378906 22.171875 -25.394531 22.078125 -24.0625 C 21.984375 -22.738281 21.9375 -21.617188 21.9375 -20.703125 C 21.9375 -19.429688 22.003906 -18.15625 22.140625 -16.875 C 22.285156 -15.59375 22.40625 -14.3125 22.5 -13.03125 C 22.582031 -12.664062 22.644531 -12.273438 22.6875 -11.859375 C 22.738281 -11.453125 22.765625 -11.019531 22.765625 -10.5625 C 22.765625 -9.644531 22.582031 -8.820312 22.21875 -8.09375 C 22.125 -7.820312 21.960938 -7.523438 21.734375 -7.203125 C 21.503906 -6.878906 21.300781 -6.535156 21.125 -6.171875 C 21.125 -6.078125 21.097656 -5.984375 21.046875 -5.890625 C 21.003906 -5.804688 20.984375 -5.671875 20.984375 -5.484375 C 20.984375 -4.929688 21.097656 -4.40625 21.328125 -3.90625 C 21.554688 -3.40625 21.671875 -2.925781 21.671875 -2.46875 C 21.671875 -1.644531 21.078125 -1.050781 19.890625 -0.6875 C 19.242188 -0.5 18.644531 -0.335938 18.09375 -0.203125 C 17.550781 -0.0664062 16.914062 0 16.1875 0 Z M 12.75 -68.171875 C 12.75 -67.523438 12.976562 -66.972656 13.4375 -66.515625 C 13.894531 -66.054688 14.445312 -65.828125 15.09375 -65.828125 C 16 -65.828125 16.453125 -66.332031 16.453125 -67.34375 C 16.453125 -67.976562 16.269531 -68.59375 15.90625 -69.1875 C 15.539062 -69.789062 14.992188 -70.09375 14.265625 -70.09375 C 13.898438 -70.09375 13.554688 -69.882812 13.234375 -69.46875 C 12.910156 -69.0625 12.75 -68.628906 12.75 -68.171875 Z M 12.75 -68.171875 "/></g></g></g><g fill="#000000" fill-opacity="1"><g transform="translate(328.948077, 115.259549)"><g><path d="M 27.84375 0 C 26.75 0 26.039062 -0.363281 25.71875 -1.09375 C 25.394531 -1.820312 25.234375 -2.644531 25.234375 -3.5625 C 25.234375 -4.207031 25.253906 -4.753906 25.296875 -5.203125 C 25.347656 -5.660156 25.375 -6.210938 25.375 -6.859375 C 25.375 -7.679688 25.347656 -8.503906 25.296875 -9.328125 C 25.253906 -10.148438 25.1875 -10.972656 25.09375 -11.796875 C 25.007812 -12.253906 24.96875 -12.734375 24.96875 -13.234375 C 24.96875 -13.734375 24.96875 -14.210938 24.96875 -14.671875 L 24.96875 -19.609375 C 24.96875 -20.890625 24.988281 -22.191406 25.03125 -23.515625 C 25.070312 -24.847656 25.09375 -26.15625 25.09375 -27.4375 C 25.09375 -28.625 25.070312 -29.765625 25.03125 -30.859375 C 24.988281 -31.953125 24.921875 -33.09375 24.828125 -34.28125 C 24.734375 -34.738281 24.6875 -35.195312 24.6875 -35.65625 C 24.6875 -36.113281 24.6875 -36.523438 24.6875 -36.890625 C 24.6875 -38.171875 24.820312 -39.546875 25.09375 -41.015625 C 25.375 -42.378906 25.515625 -43.75 25.515625 -45.125 C 25.515625 -45.675781 25.515625 -46.203125 25.515625 -46.703125 C 25.515625 -47.203125 25.46875 -47.726562 25.375 -48.28125 C 25.28125 -49.46875 25.164062 -50.609375 25.03125 -51.703125 C 24.894531 -52.804688 24.828125 -53.90625 24.828125 -55 C 24.828125 -56.007812 24.894531 -56.992188 25.03125 -57.953125 C 25.164062 -58.910156 25.234375 -59.847656 25.234375 -60.765625 C 25.234375 -61.398438 25.1875 -61.988281 25.09375 -62.53125 C 25.007812 -63.082031 24.921875 -63.679688 24.828125 -64.328125 C 24.734375 -64.960938 24.660156 -65.597656 24.609375 -66.234375 C 24.566406 -66.878906 24.546875 -67.523438 24.546875 -68.171875 C 24.546875 -68.441406 24.566406 -68.734375 24.609375 -69.046875 C 24.660156 -69.367188 24.6875 -69.71875 24.6875 -70.09375 C 24.6875 -70.726562 24.59375 -71.179688 24.40625 -71.453125 C 23.675781 -72.460938 22.71875 -72.96875 21.53125 -72.96875 C 20.894531 -72.96875 20.300781 -72.921875 19.75 -72.828125 C 19.195312 -72.734375 18.28125 -72.6875 17 -72.6875 C 16.175781 -72.6875 15.488281 -72.707031 14.9375 -72.75 C 14.394531 -72.800781 13.664062 -72.828125 12.75 -72.828125 C 12.113281 -72.828125 11.425781 -72.710938 10.6875 -72.484375 C 9.957031 -72.253906 9.226562 -72.140625 8.5 -72.140625 C 7.769531 -72.140625 7.082031 -72.226562 6.4375 -72.40625 C 5.800781 -72.59375 5.300781 -72.960938 4.9375 -73.515625 C 4.570312 -73.878906 4.390625 -74.425781 4.390625 -75.15625 C 4.390625 -75.4375 4.410156 -75.734375 4.453125 -76.046875 C 4.503906 -76.367188 4.53125 -76.664062 4.53125 -76.9375 C 4.613281 -77.488281 4.65625 -78.035156 4.65625 -78.578125 C 4.65625 -79.128906 4.703125 -79.679688 4.796875 -80.234375 C 4.890625 -80.785156 4.984375 -81.359375 5.078125 -81.953125 C 5.171875 -82.546875 5.398438 -83.070312 5.765625 -83.53125 C 5.941406 -83.800781 6.191406 -84.050781 6.515625 -84.28125 C 6.835938 -84.507812 7.453125 -84.625 8.359375 -84.625 C 9.554688 -84.625 10.976562 -84.671875 12.625 -84.765625 C 14.269531 -84.859375 15.640625 -84.90625 16.734375 -84.90625 C 20.296875 -84.90625 23.609375 -84.789062 26.671875 -84.5625 C 29.734375 -84.332031 33.097656 -84.257812 36.765625 -84.34375 C 37.765625 -84.4375 38.765625 -84.617188 39.765625 -84.890625 C 40.773438 -85.171875 41.785156 -85.3125 42.796875 -85.3125 C 44.078125 -85.3125 45.351562 -85.171875 46.625 -84.890625 C 47.90625 -84.617188 49.1875 -84.484375 50.46875 -84.484375 C 51.207031 -84.484375 51.988281 -84.617188 52.8125 -84.890625 C 53.632812 -85.171875 54.410156 -85.3125 55.140625 -85.3125 C 55.410156 -85.3125 55.820312 -85.21875 56.375 -85.03125 C 57.738281 -84.394531 58.421875 -83.253906 58.421875 -81.609375 C 58.421875 -80.785156 58.378906 -80.191406 58.296875 -79.828125 C 58.203125 -79.003906 58.15625 -78.066406 58.15625 -77.015625 C 58.15625 -75.960938 57.972656 -75.070312 57.609375 -74.34375 C 57.242188 -73.601562 56.507812 -73.144531 55.40625 -72.96875 C 54.863281 -72.875 54.316406 -72.875 53.765625 -72.96875 C 53.492188 -72.96875 53.195312 -73.054688 52.875 -73.234375 C 52.550781 -73.421875 52.207031 -73.515625 51.84375 -73.515625 C 51.382812 -73.421875 50.925781 -73.238281 50.46875 -72.96875 C 50.007812 -72.695312 49.554688 -72.46875 49.109375 -72.28125 L 48.140625 -72.28125 C 47.773438 -72.28125 47.410156 -72.300781 47.046875 -72.34375 C 46.679688 -72.394531 46.269531 -72.46875 45.8125 -72.5625 C 45.445312 -72.644531 45.125 -72.707031 44.84375 -72.75 C 44.570312 -72.800781 44.253906 -72.828125 43.890625 -72.828125 C 43.703125 -72.828125 43.472656 -72.800781 43.203125 -72.75 C 42.929688 -72.707031 42.65625 -72.6875 42.375 -72.6875 C 41.832031 -72.601562 41.21875 -72.535156 40.53125 -72.484375 C 39.84375 -72.441406 39.269531 -72.328125 38.8125 -72.140625 C 38.269531 -71.960938 37.90625 -71.617188 37.71875 -71.109375 C 37.53125 -70.609375 37.4375 -70.039062 37.4375 -69.40625 C 37.4375 -68.945312 37.503906 -68.394531 37.640625 -67.75 C 37.785156 -67.113281 37.859375 -66.472656 37.859375 -65.828125 C 37.859375 -65.191406 37.832031 -64.710938 37.78125 -64.390625 C 37.738281 -64.078125 37.71875 -63.550781 37.71875 -62.8125 C 37.71875 -61.625 37.535156 -60.570312 37.171875 -59.65625 C 36.804688 -58.75 36.394531 -57.925781 35.9375 -57.1875 C 35.570312 -56.550781 35.203125 -55.910156 34.828125 -55.265625 C 34.460938 -54.628906 34.28125 -53.945312 34.28125 -53.21875 C 34.28125 -52.757812 34.414062 -52.390625 34.6875 -52.109375 C 34.96875 -51.835938 35.289062 -51.613281 35.65625 -51.4375 C 35.84375 -51.34375 36.070312 -51.203125 36.34375 -51.015625 C 36.625 -50.835938 36.804688 -50.65625 36.890625 -50.46875 C 37.441406 -50.007812 37.71875 -49.28125 37.71875 -48.28125 C 37.71875 -47.726562 37.691406 -47.316406 37.640625 -47.046875 C 37.597656 -46.773438 37.578125 -46.410156 37.578125 -45.953125 C 37.578125 -45.585938 37.625 -45.242188 37.71875 -44.921875 C 37.8125 -44.597656 37.859375 -44.207031 37.859375 -43.75 C 37.859375 -42.5625 37.71875 -41.414062 37.4375 -40.3125 C 37.164062 -39.21875 37.03125 -38.035156 37.03125 -36.765625 C 37.03125 -35.753906 37.078125 -34.722656 37.171875 -33.671875 C 37.265625 -32.617188 37.3125 -31.546875 37.3125 -30.453125 C 37.3125 -29.804688 37.285156 -29.160156 37.234375 -28.515625 C 37.191406 -27.878906 37.171875 -27.195312 37.171875 -26.46875 C 37.171875 -26.101562 37.191406 -25.757812 37.234375 -25.4375 C 37.285156 -25.125 37.3125 -24.78125 37.3125 -24.40625 C 37.488281 -23.3125 37.644531 -22.191406 37.78125 -21.046875 C 37.925781 -19.910156 38 -18.789062 38 -17.6875 C 38 -16.78125 37.90625 -15.867188 37.71875 -14.953125 C 37.53125 -14.035156 37.4375 -13.070312 37.4375 -12.0625 C 37.4375 -11.425781 37.484375 -10.851562 37.578125 -10.34375 C 37.671875 -9.84375 37.71875 -9.226562 37.71875 -8.5 C 37.71875 -7.675781 37.691406 -6.851562 37.640625 -6.03125 C 37.597656 -5.207031 37.53125 -4.382812 37.4375 -3.5625 C 37.4375 -1.28125 36.34375 -0.140625 34.15625 -0.140625 C 33.507812 -0.140625 32.957031 -0.160156 32.5 -0.203125 C 32.039062 -0.253906 31.445312 -0.28125 30.71875 -0.28125 C 30.351562 -0.28125 29.894531 -0.234375 29.34375 -0.140625 C 28.800781 -0.046875 28.300781 0 27.84375 0 Z M 50.34375 -77.5 C 50.34375 -76.300781 50.84375 -75.703125 51.84375 -75.703125 C 52.9375 -75.703125 53.484375 -76.300781 53.484375 -77.5 C 53.484375 -78.59375 52.984375 -79.140625 51.984375 -79.140625 C 50.890625 -79.140625 50.34375 -78.59375 50.34375 -77.5 Z M 50.34375 -77.5 "/></g></g></g><g fill="#000000" fill-opacity="1"><g transform="translate(391.76115, 115.259549)"><g><path d="M 41.140625 0 C 39.773438 0 38.585938 -0.132812 37.578125 -0.40625 C 36.578125 -0.6875 35.296875 -0.828125 33.734375 -0.828125 C 33.097656 -0.828125 32.390625 -0.753906 31.609375 -0.609375 C 30.835938 -0.472656 30.082031 -0.40625 29.34375 -0.40625 C 28.613281 -0.40625 27.65625 -0.453125 26.46875 -0.546875 C 25.28125 -0.640625 24.320312 -0.6875 23.59375 -0.6875 C 21.851562 -0.6875 20.25 -0.59375 18.78125 -0.40625 C 17.320312 -0.226562 15.769531 -0.140625 14.125 -0.140625 C 13.488281 -0.140625 12.78125 -0.253906 12 -0.484375 C 11.21875 -0.710938 10.644531 -1.144531 10.28125 -1.78125 C 10.007812 -2.425781 9.875 -3.160156 9.875 -3.984375 C 9.875 -4.804688 9.875 -5.535156 9.875 -6.171875 C 9.875 -7.179688 9.78125 -8.140625 9.59375 -9.046875 C 9.414062 -9.960938 9.328125 -10.878906 9.328125 -11.796875 C 9.328125 -12.710938 9.394531 -13.625 9.53125 -14.53125 C 9.664062 -15.445312 9.78125 -16.363281 9.875 -17.28125 C 10.0625 -18.007812 10.15625 -18.601562 10.15625 -19.0625 C 10.15625 -19.613281 10.109375 -20.1875 10.015625 -20.78125 C 9.921875 -21.375 9.875 -21.988281 9.875 -22.625 C 9.875 -23.363281 9.960938 -24.097656 10.140625 -24.828125 C 10.328125 -25.554688 10.421875 -26.332031 10.421875 -27.15625 C 10.421875 -27.976562 10.328125 -28.734375 10.140625 -29.421875 C 9.960938 -30.109375 9.875 -30.816406 9.875 -31.546875 L 9.875 -35.9375 C 9.875 -36.300781 9.875 -36.753906 9.875 -37.296875 C 9.875 -37.847656 9.875 -38.304688 9.875 -38.671875 C 9.875 -39.046875 9.894531 -39.597656 9.9375 -40.328125 C 9.988281 -41.054688 10.0625 -41.832031 10.15625 -42.65625 C 10.15625 -43.570312 10.289062 -44.347656 10.5625 -44.984375 C 11.019531 -46.085938 11.25 -47.09375 11.25 -48 C 11.25 -48.820312 11.085938 -49.597656 10.765625 -50.328125 C 10.441406 -51.066406 10.238281 -51.847656 10.15625 -52.671875 C 10.0625 -53.671875 10.015625 -54.671875 10.015625 -55.671875 C 10.015625 -56.679688 10.015625 -57.644531 10.015625 -58.5625 C 10.015625 -60.394531 10.054688 -61.90625 10.140625 -63.09375 C 10.234375 -64.28125 10.28125 -65.648438 10.28125 -67.203125 C 10.28125 -68.023438 10.210938 -69.234375 10.078125 -70.828125 C 9.941406 -72.429688 9.875 -73.644531 9.875 -74.46875 C 9.875 -75.476562 9.960938 -76.441406 10.140625 -77.359375 C 10.328125 -78.273438 10.421875 -79.234375 10.421875 -80.234375 C 10.421875 -80.597656 10.375 -81.007812 10.28125 -81.46875 C 10.195312 -81.925781 10.15625 -82.335938 10.15625 -82.703125 C 10.15625 -83.523438 10.425781 -84.117188 10.96875 -84.484375 C 11.425781 -84.847656 12.019531 -85.03125 12.75 -85.03125 C 13.570312 -85.03125 14.234375 -84.984375 14.734375 -84.890625 C 15.242188 -84.804688 15.726562 -84.765625 16.1875 -84.765625 C 17.101562 -84.765625 17.992188 -84.851562 18.859375 -85.03125 C 19.722656 -85.21875 20.613281 -85.3125 21.53125 -85.3125 C 22.257812 -85.3125 22.921875 -85.265625 23.515625 -85.171875 C 24.109375 -85.078125 24.726562 -85.03125 25.375 -85.03125 C 26.289062 -85.03125 27.160156 -85.117188 27.984375 -85.296875 C 28.804688 -85.484375 29.671875 -85.578125 30.578125 -85.578125 C 31.316406 -85.578125 32.070312 -85.554688 32.84375 -85.515625 C 33.625 -85.472656 34.425781 -85.453125 35.25 -85.453125 C 37.257812 -85.453125 39.363281 -85.3125 41.5625 -85.03125 C 42.289062 -84.945312 43.039062 -84.90625 43.8125 -84.90625 C 44.59375 -84.90625 45.347656 -84.90625 46.078125 -84.90625 C 46.898438 -84.90625 47.703125 -84.878906 48.484375 -84.828125 C 49.265625 -84.785156 50.066406 -84.765625 50.890625 -84.765625 C 51.523438 -84.765625 52.253906 -84.832031 53.078125 -84.96875 C 53.898438 -85.101562 54.675781 -85.171875 55.40625 -85.171875 C 56.226562 -85.171875 56.867188 -84.988281 57.328125 -84.625 C 57.878906 -84.164062 58.195312 -83.546875 58.28125 -82.765625 C 58.375 -81.992188 58.421875 -81.242188 58.421875 -80.515625 C 58.515625 -78.953125 58.425781 -77.257812 58.15625 -75.4375 C 57.789062 -73.695312 56.691406 -72.828125 54.859375 -72.828125 C 54.222656 -72.828125 53.789062 -73.097656 53.5625 -73.640625 C 53.332031 -74.191406 53.125 -74.789062 52.9375 -75.4375 C 52.851562 -75.894531 52.671875 -76.394531 52.390625 -76.9375 C 52.117188 -77.488281 51.660156 -77.765625 51.015625 -77.765625 C 50.109375 -77.765625 49.515625 -77.351562 49.234375 -76.53125 C 48.960938 -75.707031 48.734375 -74.976562 48.546875 -74.34375 C 48.460938 -73.601562 48.164062 -73.140625 47.65625 -72.953125 C 47.15625 -72.773438 46.585938 -72.6875 45.953125 -72.6875 C 45.035156 -72.6875 44.097656 -72.640625 43.140625 -72.546875 C 42.179688 -72.460938 41.195312 -72.421875 40.1875 -72.421875 C 39 -72.421875 37.925781 -72.507812 36.96875 -72.6875 C 36.007812 -72.875 35.207031 -72.96875 34.5625 -72.96875 C 33.644531 -72.96875 32.84375 -72.921875 32.15625 -72.828125 C 31.476562 -72.734375 30.632812 -72.6875 29.625 -72.6875 C 28.988281 -72.6875 28.328125 -72.753906 27.640625 -72.890625 C 26.953125 -73.035156 26.285156 -73.109375 25.640625 -73.109375 C 24.179688 -73.109375 23.3125 -72.648438 23.03125 -71.734375 C 22.757812 -70.816406 22.625 -69.898438 22.625 -68.984375 C 22.539062 -66.703125 22.359375 -64.28125 22.078125 -61.71875 C 21.804688 -59.15625 21.671875 -57.097656 21.671875 -55.546875 C 21.671875 -54.359375 21.851562 -53.285156 22.21875 -52.328125 C 22.582031 -51.367188 23.359375 -50.566406 24.546875 -49.921875 C 24.828125 -49.828125 25.125 -49.757812 25.4375 -49.71875 C 25.757812 -49.675781 26.101562 -49.65625 26.46875 -49.65625 C 26.925781 -49.65625 27.40625 -49.675781 27.90625 -49.71875 C 28.414062 -49.757812 28.851562 -49.78125 29.21875 -49.78125 C 30.3125 -49.875 31.40625 -49.875 32.5 -49.78125 C 33.601562 -49.695312 34.75 -49.65625 35.9375 -49.65625 C 36.664062 -49.65625 37.414062 -49.695312 38.1875 -49.78125 C 38.96875 -49.875 39.726562 -49.921875 40.46875 -49.921875 C 41.195312 -49.921875 41.859375 -49.875 42.453125 -49.78125 C 43.046875 -49.695312 43.660156 -49.65625 44.296875 -49.65625 C 45.035156 -49.65625 45.835938 -49.742188 46.703125 -49.921875 C 47.566406 -50.109375 48.367188 -50.203125 49.109375 -50.203125 C 49.554688 -50.203125 49.921875 -50.15625 50.203125 -50.0625 C 50.835938 -49.96875 51.613281 -49.921875 52.53125 -49.921875 C 53.445312 -49.921875 54.175781 -49.738281 54.71875 -49.375 C 55.363281 -49.007812 55.707031 -48.414062 55.75 -47.59375 C 55.800781 -46.769531 55.867188 -45.992188 55.953125 -45.265625 C 55.953125 -44.804688 55.972656 -44.320312 56.015625 -43.8125 C 56.066406 -43.3125 56.09375 -42.789062 56.09375 -42.25 C 56.09375 -41.882812 56.09375 -41.515625 56.09375 -41.140625 C 56.09375 -40.773438 56.003906 -40.410156 55.828125 -40.046875 C 55.640625 -39.222656 55.179688 -38.628906 54.453125 -38.265625 C 53.722656 -37.898438 52.851562 -37.625 51.84375 -37.4375 C 51.113281 -37.351562 50.335938 -37.3125 49.515625 -37.3125 C 48.691406 -37.3125 47.957031 -37.3125 47.3125 -37.3125 C 45.582031 -37.3125 43.847656 -37.351562 42.109375 -37.4375 C 40.367188 -37.53125 38.585938 -37.578125 36.765625 -37.578125 C 35.566406 -37.578125 34.347656 -37.507812 33.109375 -37.375 C 31.878906 -37.238281 30.625 -37.171875 29.34375 -37.171875 C 28.707031 -37.171875 28 -37.210938 27.21875 -37.296875 C 26.445312 -37.390625 25.695312 -37.4375 24.96875 -37.4375 C 23.769531 -37.4375 22.898438 -37.023438 22.359375 -36.203125 C 22.265625 -35.929688 22.148438 -35.289062 22.015625 -34.28125 C 21.878906 -33.28125 21.8125 -32.414062 21.8125 -31.6875 C 21.8125 -30.945312 21.785156 -30.070312 21.734375 -29.0625 C 21.691406 -28.0625 21.71875 -27.195312 21.8125 -26.46875 C 21.8125 -26.007812 21.878906 -25.503906 22.015625 -24.953125 C 22.148438 -24.410156 22.21875 -23.910156 22.21875 -23.453125 C 22.21875 -22.628906 21.804688 -22.054688 20.984375 -21.734375 C 20.160156 -21.421875 19.382812 -21.125 18.65625 -20.84375 C 17.375 -20.382812 16.734375 -19.472656 16.734375 -18.109375 C 16.734375 -17.191406 17.164062 -16.550781 18.03125 -16.1875 C 18.90625 -15.820312 19.707031 -15.5 20.4375 -15.21875 C 21.164062 -15.039062 21.828125 -14.675781 22.421875 -14.125 C 23.015625 -13.570312 23.675781 -13.160156 24.40625 -12.890625 C 24.78125 -12.796875 25.125 -12.726562 25.4375 -12.6875 C 25.757812 -12.644531 26.101562 -12.625 26.46875 -12.625 L 34.015625 -12.75 C 35.296875 -12.75 36.300781 -12.453125 37.03125 -11.859375 C 37.757812 -11.265625 38.492188 -10.96875 39.234375 -10.96875 C 40.140625 -10.96875 40.773438 -11.171875 41.140625 -11.578125 C 41.515625 -11.992188 42.066406 -12.296875 42.796875 -12.484375 C 43.253906 -12.660156 43.734375 -12.769531 44.234375 -12.8125 C 44.734375 -12.863281 45.257812 -12.890625 45.8125 -12.890625 L 47.734375 -12.890625 C 48.097656 -12.796875 48.4375 -12.75 48.75 -12.75 C 49.070312 -12.75 49.375 -12.75 49.65625 -12.75 C 50.9375 -12.75 52.007812 -12.816406 52.875 -12.953125 C 53.738281 -13.097656 54.492188 -13.171875 55.140625 -13.171875 C 56.054688 -13.171875 56.832031 -12.847656 57.46875 -12.203125 C 57.925781 -11.742188 58.128906 -11.101562 58.078125 -10.28125 C 58.035156 -9.457031 58.0625 -8.773438 58.15625 -8.234375 C 58.15625 -7.867188 58.175781 -7.429688 58.21875 -6.921875 C 58.269531 -6.421875 58.296875 -5.941406 58.296875 -5.484375 C 58.296875 -2.015625 56.878906 -0.28125 54.046875 -0.28125 C 53.304688 -0.28125 52.546875 -0.300781 51.765625 -0.34375 C 50.992188 -0.382812 49.96875 -0.40625 48.6875 -0.40625 C 47.863281 -0.40625 46.695312 -0.335938 45.1875 -0.203125 C 43.6875 -0.0664062 42.335938 0 41.140625 0 Z M 37.03125 -81.46875 C 37.03125 -80.28125 37.578125 -79.6875 38.671875 -79.6875 C 39.128906 -79.6875 39.519531 -79.890625 39.84375 -80.296875 C 40.164062 -80.710938 40.328125 -81.101562 40.328125 -81.46875 C 40.328125 -82.75 39.820312 -83.390625 38.8125 -83.390625 C 37.625 -83.390625 37.03125 -82.75 37.03125 -81.46875 Z M 37.03125 -81.46875 "/></g></g></g><g fill="#000000" fill-opacity="1"><g transform="translate(95.351613, 200.102124)"><g><path d="M 17.0625 -39.328125 C 21.332031 -39.328125 24.492188 -38.382812 26.546875 -36.5 C 28.609375 -34.625 29.640625 -32.109375 29.640625 -28.953125 L 29.640625 0 L 25.453125 0 L 24.6875 -3.5 C 22.351562 -0.351562 18.898438 1.21875 14.328125 1.21875 C 10.921875 1.21875 8.289062 0.351562 6.4375 -1.375 C 4.582031 -3.101562 3.65625 -5.488281 3.65625 -8.53125 C 3.65625 -12.957031 5.484375 -16.4375 9.140625 -18.96875 C 12.796875 -21.507812 17.703125 -22.882812 23.859375 -23.09375 L 23.859375 -28.953125 C 23.859375 -30.628906 23.335938 -31.960938 22.296875 -32.953125 C 21.253906 -33.941406 19.507812 -34.4375 17.0625 -34.4375 C 14.675781 -34.4375 12.9375 -33.941406 11.84375 -32.953125 C 10.757812 -31.960938 10.21875 -30.628906 10.21875 -28.953125 L 10.21875 -27.359375 L 4.421875 -27.359375 L 4.421875 -28.953125 C 4.421875 -32.109375 5.460938 -34.625 7.546875 -36.5 C 9.628906 -38.382812 12.800781 -39.328125 17.0625 -39.328125 Z M 23.859375 -11.5 L 23.859375 -18.96875 C 19.328125 -18.769531 15.753906 -17.894531 13.140625 -16.34375 C 10.523438 -14.789062 9.21875 -12.519531 9.21875 -9.53125 C 9.21875 -7.75 9.789062 -6.320312 10.9375 -5.25 C 12.082031 -4.1875 13.671875 -3.65625 15.703125 -3.65625 C 17.929688 -3.65625 19.847656 -4.335938 21.453125 -5.703125 C 23.054688 -7.078125 23.859375 -9.007812 23.859375 -11.5 Z M 23.859375 -11.5 "/></g></g></g><g fill="#000000" fill-opacity="1"><g transform="translate(136.728701, 200.102124)"><g><path d="M 4.640625 -38.09375 L 8.765625 -38.09375 L 9.453125 -35.28125 C 11.128906 -37.976562 13.390625 -39.328125 16.234375 -39.328125 C 17.398438 -39.328125 18.363281 -39.222656 19.125 -39.015625 C 19.882812 -38.816406 20.597656 -38.507812 21.265625 -38.09375 L 21.265625 -33.140625 C 20.546875 -33.554688 19.867188 -33.863281 19.234375 -34.0625 C 18.597656 -34.269531 17.75 -34.375 16.6875 -34.375 C 15.769531 -34.375 14.84375 -34.09375 13.90625 -33.53125 C 12.96875 -32.96875 12.164062 -32.085938 11.5 -30.890625 C 10.84375 -29.703125 10.515625 -28.117188 10.515625 -26.140625 L 10.515625 0 L 4.640625 0 Z M 4.640625 -38.09375 "/></g></g></g><g fill="#000000" fill-opacity="1"><g transform="translate(166.066148, 200.102124)"><g><path d="M 7.390625 -49.6875 L 11.734375 -49.6875 L 11.734375 -38.09375 L 20.875 -38.09375 L 20.875 -33.765625 L 11.734375 -33.765625 L 11.734375 -8.375 C 11.734375 -6.800781 12.140625 -5.632812 12.953125 -4.875 C 13.765625 -4.113281 14.753906 -3.734375 15.921875 -3.734375 C 16.785156 -3.734375 17.625 -3.832031 18.4375 -4.03125 C 19.25 -4.238281 20.0625 -4.648438 20.875 -5.265625 L 20.875 -0.53125 C 19.96875 -0.0195312 18.976562 0.394531 17.90625 0.71875 C 16.84375 1.050781 15.625 1.21875 14.25 1.21875 C 11.8125 1.21875 9.816406 0.429688 8.265625 -1.140625 C 6.710938 -2.710938 5.9375 -4.921875 5.9375 -7.765625 L 5.9375 -33.765625 L 1.671875 -33.765625 L 1.671875 -38.09375 L 5.9375 -38.09375 Z M 7.390625 -49.6875 "/></g></g></g><g fill="#000000" fill-opacity="1"><g transform="translate(194.794011, 200.102124)"><g><path d="M 4.640625 -38.09375 L 10.515625 -38.09375 L 10.515625 0 L 4.640625 0 Z M 4.640625 -53.34375 L 10.515625 -53.34375 L 10.515625 -46.171875 L 4.640625 -46.171875 Z M 4.640625 -53.34375 "/></g></g></g><g fill="#000000" fill-opacity="1"><g transform="translate(216.968662, 200.102124)"><g><path d="M 0.84375 -38.09375 L 6.40625 -38.09375 L 13.9375 -7.015625 L 21.484375 -38.09375 L 27.359375 -38.09375 L 17.671875 0 L 10.21875 0 Z M 0.84375 -38.09375 "/></g></g></g><g fill="#000000" fill-opacity="1"><g transform="translate(252.249736, 200.102124)"><g><path d="M 4.640625 -38.09375 L 10.515625 -38.09375 L 10.515625 0 L 4.640625 0 Z M 4.640625 -53.34375 L 10.515625 -53.34375 L 10.515625 -46.171875 L 4.640625 -46.171875 Z M 4.640625 -53.34375 "/></g></g></g><g fill="#000000" fill-opacity="1"><g transform="translate(274.424388, 200.102124)"><g><path d="M 15.703125 -39.328125 C 19.660156 -39.328125 22.679688 -38.347656 24.765625 -36.390625 C 26.847656 -34.429688 27.914062 -31.953125 27.96875 -28.953125 L 22.171875 -28.953125 C 22.117188 -30.578125 21.554688 -31.894531 20.484375 -32.90625 C 19.421875 -33.925781 17.828125 -34.4375 15.703125 -34.4375 C 13.515625 -34.4375 11.898438 -33.941406 10.859375 -32.953125 C 9.816406 -31.960938 9.296875 -30.734375 9.296875 -29.265625 C 9.296875 -27.734375 9.5625 -26.5 10.09375 -25.5625 C 10.625 -24.625 11.65625 -23.75 13.1875 -22.9375 L 22.328125 -18.4375 C 24.816406 -17.21875 26.503906 -15.859375 27.390625 -14.359375 C 28.285156 -12.859375 28.734375 -11.066406 28.734375 -8.984375 C 28.734375 -5.941406 27.5625 -3.476562 25.21875 -1.59375 C 22.882812 0.28125 19.710938 1.21875 15.703125 1.21875 C 11.734375 1.21875 8.59375 0.253906 6.28125 -1.671875 C 3.96875 -3.609375 2.789062 -6.203125 2.75 -9.453125 L 8.53125 -9.453125 C 8.582031 -7.566406 9.269531 -6.128906 10.59375 -5.140625 C 11.914062 -4.148438 13.664062 -3.65625 15.84375 -3.65625 C 17.976562 -3.65625 19.691406 -4.132812 20.984375 -5.09375 C 22.285156 -6.0625 22.9375 -7.335938 22.9375 -8.921875 C 22.9375 -10.085938 22.707031 -11.113281 22.25 -12 C 21.789062 -12.882812 20.828125 -13.710938 19.359375 -14.484375 L 10.21875 -18.96875 C 7.726562 -20.289062 5.984375 -21.726562 4.984375 -23.28125 C 3.992188 -24.832031 3.5 -26.828125 3.5 -29.265625 C 3.5 -32.109375 4.523438 -34.492188 6.578125 -36.421875 C 8.640625 -38.359375 11.679688 -39.328125 15.703125 -39.328125 Z M 15.703125 -39.328125 "/></g></g></g><g fill="#000000" fill-opacity="1"><g transform="translate(312.905873, 200.102124)"><g><path d="M 4.640625 -38.09375 L 8.765625 -38.09375 L 9.453125 -35.515625 C 10.316406 -36.679688 11.40625 -37.609375 12.71875 -38.296875 C 14.039062 -38.984375 15.617188 -39.328125 17.453125 -39.328125 C 19.535156 -39.328125 21.3125 -38.90625 22.78125 -38.0625 C 24.257812 -37.226562 25.40625 -36.070312 26.21875 -34.59375 C 27.03125 -36.070312 28.160156 -37.226562 29.609375 -38.0625 C 31.054688 -38.90625 32.796875 -39.328125 34.828125 -39.328125 C 38.234375 -39.328125 40.796875 -38.242188 42.515625 -36.078125 C 44.242188 -33.921875 45.109375 -31.191406 45.109375 -27.890625 L 45.109375 0 L 39.328125 0 L 39.328125 -27.890625 C 39.328125 -29.816406 38.851562 -31.378906 37.90625 -32.578125 C 36.96875 -33.773438 35.535156 -34.375 33.609375 -34.375 C 31.828125 -34.375 30.414062 -33.828125 29.375 -32.734375 C 28.332031 -31.640625 27.8125 -30.023438 27.8125 -27.890625 L 27.8125 0 L 22.015625 0 L 22.015625 -27.890625 C 22.015625 -29.816406 21.53125 -31.378906 20.5625 -32.578125 C 19.601562 -33.773438 18.160156 -34.375 16.234375 -34.375 C 14.453125 -34.375 13.050781 -33.828125 12.03125 -32.734375 C 11.019531 -31.640625 10.515625 -30.023438 10.515625 -27.890625 L 10.515625 0 L 4.640625 0 Z M 4.640625 -38.09375 "/></g></g></g></g></g></svg>